<svg width="30" height="30" fill="none" xmlns="http://www.w3.org/2000/svg"><path d="M21.563 3.75a4.688 4.688 0 0 1 4.687 4.688v3.294a10.27 10.27 0 0 0-6.563-2.357h4.688v-.938a2.812 2.812 0 0 0-2.813-2.812H8.438a2.813 2.813 0 0 0-2.812 2.813v.937h14.063c-2.207 0-4.253.694-5.931 1.875H5.625v10.313a2.812 2.812 0 0 0 2.813 2.812H10.5c.343.671.758 1.3 1.232 1.875H8.438a4.688 4.688 0 0 1-4.688-4.688V8.438A4.687 4.687 0 0 1 8.438 3.75h13.124Z" fill="#FF7878"/><path d="M28.125 19.688a8.436 8.436 0 1 1-16.873 0 8.436 8.436 0 0 1 16.873 0Zm-4.961-2.15a.939.939 0 0 0-1.328-1.327l-2.148 2.15-2.15-2.15a.939.939 0 0 0-1.327 1.328l2.15 2.148-2.15 2.15a.939.939 0 0 0 1.328 1.327l2.148-2.15 2.15 2.15a.939.939 0 0 0 1.327-1.328l-2.15-2.148 2.15-2.15Z" fill="#FF7878"/></svg>