<svg width="30" height="30" fill="none" xmlns="http://www.w3.org/2000/svg"><path fill-rule="evenodd" clip-rule="evenodd" d="M21.25 6.25V5a2.5 2.5 0 0 0-2.5-2.5h-7.5A2.5 2.5 0 0 0 8.75 5v1.25H5a1.25 1.25 0 0 0 0 2.5h1.25V22.5A3.75 3.75 0 0 0 10 26.25h10a3.75 3.75 0 0 0 3.75-3.75V8.75H25a1.25 1.25 0 0 0 0-2.5h-3.75ZM18.75 5h-7.5v1.25h7.5V5Zm2.5 3.75H8.75V22.5A1.25 1.25 0 0 0 10 23.75h10a1.25 1.25 0 0 0 1.25-1.25V8.75Z" fill="#000"/><path d="M11.25 11.25h2.5v10h-2.5v-10ZM16.25 11.25h2.5v10h-2.5v-10Z" fill="#000"/></svg>