<svg width="30" height="30" viewBox="0 0 30 30" fill="none" xmlns="http://www.w3.org/2000/svg">
<path d="M21.5625 3.75C22.8057 3.75 23.998 4.24386 24.8771 5.12294C25.7561 6.00201 26.25 7.1943 26.25 8.4375V11.7319C24.4043 10.205 22.0829 9.37135 19.6875 9.375H24.375V8.4375C24.375 7.69158 24.0787 6.97621 23.5512 6.44876C23.0238 5.92132 22.3084 5.625 21.5625 5.625H8.4375C7.69158 5.625 6.97621 5.92132 6.44876 6.44876C5.92132 6.97621 5.625 7.69158 5.625 8.4375V9.375H19.6875C17.4806 9.375 15.435 10.0688 13.7569 11.25H5.625V21.5625C5.625 22.3084 5.92132 23.0238 6.44876 23.5512C6.97621 24.0787 7.69158 24.375 8.4375 24.375H10.5C10.8431 25.0463 11.2575 25.6744 11.7319 26.25H8.4375C7.1943 26.25 6.00201 25.7561 5.12294 24.8771C4.24386 23.998 3.75 22.8057 3.75 21.5625V8.4375C3.75 7.1943 4.24386 6.00201 5.12294 5.12294C6.00201 4.24386 7.1943 3.75 8.4375 3.75H21.5625Z" fill="#FF7878"/>
<path d="M28.125 19.6875C28.125 20.7955 27.9068 21.8927 27.4827 22.9164C27.0587 23.9401 26.4372 24.8702 25.6537 25.6537C24.8702 26.4372 23.9401 27.0587 22.9164 27.4827C21.8927 27.9068 20.7955 28.125 19.6875 28.125C18.5795 28.125 17.4823 27.9068 16.4586 27.4827C15.4349 27.0587 14.5048 26.4372 13.7213 25.6537C12.9378 24.8702 12.3163 23.9401 11.8923 22.9164C11.4682 21.8927 11.25 20.7955 11.25 19.6875C11.25 17.4497 12.1389 15.3036 13.7213 13.7213C15.3036 12.1389 17.4497 11.25 19.6875 11.25C21.9253 11.25 24.0714 12.1389 25.6537 13.7213C27.2361 15.3036 28.125 17.4497 28.125 19.6875V19.6875ZM23.1638 17.5388C23.2509 17.4516 23.3201 17.3481 23.3672 17.2342C23.4144 17.1203 23.4387 16.9983 23.4387 16.875C23.4387 16.7517 23.4144 16.6297 23.3672 16.5158C23.3201 16.4019 23.2509 16.2984 23.1638 16.2112C23.0766 16.1241 22.9731 16.0549 22.8592 16.0078C22.7453 15.9606 22.6233 15.9363 22.5 15.9363C22.3767 15.9363 22.2547 15.9606 22.1408 16.0078C22.0269 16.0549 21.9234 16.1241 21.8362 16.2112L19.6875 18.3619L17.5388 16.2112C17.3627 16.0352 17.124 15.9363 16.875 15.9363C16.626 15.9363 16.3873 16.0352 16.2112 16.2112C16.0352 16.3873 15.9363 16.626 15.9363 16.875C15.9363 17.124 16.0352 17.3627 16.2112 17.5388L18.3619 19.6875L16.2112 21.8362C16.0352 22.0123 15.9363 22.251 15.9363 22.5C15.9363 22.749 16.0352 22.9877 16.2112 23.1638C16.3873 23.3398 16.626 23.4387 16.875 23.4387C17.124 23.4387 17.3627 23.3398 17.5388 23.1638L19.6875 21.0131L21.8362 23.1638C22.0123 23.3398 22.251 23.4387 22.5 23.4387C22.749 23.4387 22.9877 23.3398 23.1638 23.1638C23.3398 22.9877 23.4387 22.749 23.4387 22.5C23.4387 22.251 23.3398 22.0123 23.1638 21.8362L21.0131 19.6875L23.1638 17.5388V17.5388Z" fill="#FF7878"/>
</svg>
