<svg width="20" height="20" viewBox="0 0 20 20" fill="none" xmlns="http://www.w3.org/2000/svg">
<path d="M14.5 10C15.6935 10 16.8381 9.52589 17.682 8.68198C18.5259 7.83807 19 6.69347 19 5.5C19 4.30653 18.5259 3.16193 17.682 2.31802C16.8381 1.47411 15.6935 1 14.5 1C13.3065 1 12.1619 1.47411 11.318 2.31802C10.4741 3.16193 10 4.30653 10 5.5C10 6.69347 10.4741 7.83807 11.318 8.68198C12.1619 9.52589 13.3065 10 14.5 10V10ZM16.854 4.354L13.854 7.354C13.8076 7.40056 13.7524 7.43751 13.6916 7.46271C13.6309 7.48792 13.5658 7.50089 13.5 7.50089C13.4342 7.50089 13.3691 7.48792 13.3084 7.46271C13.2476 7.43751 13.1924 7.40056 13.146 7.354L12.146 6.354C12.0521 6.26011 11.9994 6.13278 11.9994 6C11.9994 5.86722 12.0521 5.73989 12.146 5.646C12.2399 5.55211 12.3672 5.49937 12.5 5.49937C12.6328 5.49937 12.7601 5.55211 12.854 5.646L13.5 6.293L16.146 3.646C16.2399 3.55211 16.3672 3.49937 16.5 3.49937C16.6328 3.49937 16.7601 3.55211 16.854 3.646C16.9479 3.73989 17.0006 3.86722 17.0006 4C17.0006 4.13278 16.9479 4.26011 16.854 4.354ZM14.845 10.989C14.483 11.0113 14.1196 10.9986 13.76 10.951L10.5 16.511V10.866C10.6906 10.7559 10.8396 10.586 10.9239 10.3827C11.0081 10.1793 11.0229 9.95379 10.9659 9.74116C10.909 9.52852 10.7834 9.34063 10.6088 9.20662C10.4341 9.07261 10.2201 8.99997 10 8.99997C9.77987 8.99997 9.56588 9.07261 9.39124 9.20662C9.21659 9.34063 9.09105 9.52852 9.03407 9.74116C8.9771 9.95379 8.99188 10.1793 9.07612 10.3827C9.16036 10.586 9.30936 10.7559 9.5 10.866V16.511L6.216 10.91C6.09248 10.6993 6.02226 10.4617 6.01146 10.2177C6.00065 9.9737 6.04958 9.73077 6.154 9.51L7.816 6H9.022C8.99202 5.66734 8.99202 5.33266 9.022 5H6.5C6.36739 5 6.24021 4.94732 6.14645 4.85355C6.05268 4.75979 6 4.63261 6 4.5V2.5C6 2.36739 5.94732 2.24021 5.85355 2.14645C5.75979 2.05268 5.63261 2 5.5 2C5.36739 2 5.24021 2.05268 5.14645 2.14645C5.05268 2.24021 5 2.36739 5 2.5V4.5C5 4.89782 5.15804 5.27936 5.43934 5.56066C5.72064 5.84196 6.10218 6 6.5 6H6.71L5.25 9.08C5.07564 9.44815 4.99387 9.85332 5.01183 10.2603C5.02978 10.6672 5.1469 11.0636 5.353 11.415L8.816 17.322C8.93717 17.5284 9.11017 17.6995 9.31785 17.8184C9.52554 17.9373 9.76069 17.9998 10 17.9998C10.2393 17.9998 10.4745 17.9373 10.6821 17.8184C10.8898 17.6995 11.0628 17.5284 11.184 17.322L14.647 11.415C14.727 11.278 14.793 11.135 14.845 10.989V10.989Z" fill="black"/>
</svg>
