<svg width="30" height="30" viewBox="0 0 30 30" fill="none" xmlns="http://www.w3.org/2000/svg">
<path d="M17.5 16C16.875 15.3875 15.975 15 15 15C14.1168 15.0002 13.2621 15.3124 12.5869 15.8816C11.9116 16.4509 11.4593 17.2404 11.3097 18.1108C11.1602 18.9812 11.323 19.8765 11.7696 20.6385C12.2161 21.4004 12.9175 21.9801 13.75 22.275C13.7919 20.9969 14.158 19.7505 14.814 18.6528C15.47 17.5552 16.3943 16.6423 17.5 16V16ZM13.8625 23.75H6.25V6.25H20.2125L23.75 9.7875V15.4375C24.6875 15.7625 25.525 16.25 26.25 16.925V8.75L21.25 3.75H6.25C5.58696 3.75 4.95107 4.01339 4.48223 4.48223C4.01339 4.95107 3.75 5.58696 3.75 6.25V23.75C3.75 24.413 4.01339 25.0489 4.48223 25.5178C4.95107 25.9866 5.58696 26.25 6.25 26.25H14.7625C14.325 25.4875 14.0125 24.65 13.8625 23.75V23.75ZM7.5 12.5H18.75V7.5H7.5V12.5ZM19.6875 26.25L16.25 22.5L17.7 21.05L19.6875 23.0375L24.175 18.55L25.625 20.3125L19.6875 26.25Z" fill="#425969"/>
</svg>
