<svg width="30" height="30" viewBox="0 0 30 30" fill="none" xmlns="http://www.w3.org/2000/svg">
<path fill-rule="evenodd" clip-rule="evenodd" d="M21.25 6.25V5C21.25 4.33696 20.9866 3.70107 20.5178 3.23223C20.0489 2.76339 19.413 2.5 18.75 2.5H11.25C10.587 2.5 9.95107 2.76339 9.48223 3.23223C9.01339 3.70107 8.75 4.33696 8.75 5V6.25H5C4.66848 6.25 4.35054 6.3817 4.11612 6.61612C3.8817 6.85054 3.75 7.16848 3.75 7.5C3.75 7.83152 3.8817 8.14946 4.11612 8.38388C4.35054 8.6183 4.66848 8.75 5 8.75H6.25V22.5C6.25 23.4946 6.64509 24.4484 7.34835 25.1517C8.05161 25.8549 9.00544 26.25 10 26.25H20C20.9946 26.25 21.9484 25.8549 22.6517 25.1517C23.3549 24.4484 23.75 23.4946 23.75 22.5V8.75H25C25.3315 8.75 25.6495 8.6183 25.8839 8.38388C26.1183 8.14946 26.25 7.83152 26.25 7.5C26.25 7.16848 26.1183 6.85054 25.8839 6.61612C25.6495 6.3817 25.3315 6.25 25 6.25H21.25ZM18.75 5H11.25V6.25H18.75V5ZM21.25 8.75H8.75V22.5C8.75 22.8315 8.8817 23.1495 9.11612 23.3839C9.35054 23.6183 9.66848 23.75 10 23.75H20C20.3315 23.75 20.6495 23.6183 20.8839 23.3839C21.1183 23.1495 21.25 22.8315 21.25 22.5V8.75Z" fill="black"/>
<path d="M11.25 11.25H13.75V21.25H11.25V11.25Z" fill="black"/>
<path d="M16.25 11.25H18.75V21.25H16.25V11.25Z" fill="black"/>
</svg>
